<svg width="32" height="32" viewBox="0 0 32 32" fill="none" xmlns="http://www.w3.org/2000/svg">
<path fill-rule="evenodd" clip-rule="evenodd" d="M6.66536 1.33301C5.25088 1.33301 3.89432 1.89491 2.89413 2.89511C1.89393 3.8953 1.33203 5.25185 1.33203 6.66634V25.333C1.33203 26.7475 1.89393 28.104 2.89413 29.1042C3.89432 30.1044 5.25088 30.6663 6.66536 30.6663H25.332C26.7465 30.6663 28.1031 30.1044 29.1033 29.1042C30.1035 28.104 30.6654 26.7475 30.6654 25.333V6.66634C30.6654 5.25185 30.1035 3.8953 29.1033 2.89511C28.1031 1.89491 26.7465 1.33301 25.332 1.33301H6.66536ZM20.5054 8.98634L17.5254 8.32367L16.8334 12.4703C18.9 12.597 20.7894 13.1903 22.2534 14.117C22.5247 13.8564 22.8492 13.6576 23.2046 13.5342C23.56 13.4108 23.9379 13.3657 24.3124 13.4022C24.6868 13.4386 25.049 13.5556 25.374 13.7451C25.6989 13.9347 25.9791 14.1923 26.1951 14.5003C26.4112 14.8083 26.558 15.1594 26.6256 15.5295C26.6931 15.8996 26.6798 16.2799 26.5866 16.6444C26.4933 17.0089 26.3223 17.3489 26.0853 17.641C25.8482 17.9332 25.5508 18.1706 25.2134 18.337C25.2334 18.5037 25.2427 18.673 25.2427 18.8437C25.2427 20.7263 24.0987 22.3437 22.4267 23.4583C20.7507 24.5757 18.476 25.245 15.9987 25.245C13.5214 25.245 11.2467 24.5757 9.5707 23.4583C7.8987 22.3437 6.7547 20.7263 6.7547 18.845C6.7547 18.673 6.76403 18.5037 6.78136 18.337C6.44611 18.1693 6.15098 17.9313 5.91609 17.6391C5.6812 17.347 5.51208 17.0076 5.42027 16.6442C5.32847 16.2807 5.31613 15.9017 5.3841 15.5331C5.45208 15.1644 5.59876 14.8148 5.81415 14.508C6.02954 14.2012 6.30857 13.9445 6.63221 13.7553C6.95584 13.5661 7.31647 13.449 7.68949 13.4119C8.06251 13.3748 8.43914 13.4186 8.79371 13.5403C9.14827 13.6619 9.47241 13.8587 9.74403 14.117C11.2627 13.1557 13.2374 12.553 15.3934 12.457L16.2454 7.35034C16.2612 7.25497 16.2963 7.16382 16.3485 7.08245C16.4007 7.00108 16.4689 6.93119 16.549 6.87704C16.6291 6.8229 16.7194 6.78563 16.8143 6.76752C16.9093 6.7494 17.007 6.75082 17.1014 6.77167L20.92 7.62101C21.2188 7.21623 21.651 6.93006 22.1403 6.81304C22.6296 6.69601 23.1445 6.75568 23.594 6.98149C24.0436 7.2073 24.3989 7.58472 24.5972 8.04709C24.7954 8.50946 24.8239 9.02703 24.6776 9.50836C24.5313 9.9897 24.2195 10.4038 23.7975 10.6776C23.3754 10.9514 22.8701 11.0672 22.371 11.0046C21.8718 10.942 21.4108 10.705 21.0694 10.3354C20.7281 9.96587 20.5283 9.48891 20.5054 8.98634ZM12.2067 18.8437C12.3971 18.8495 12.5867 18.817 12.7644 18.7482C12.942 18.6794 13.104 18.5756 13.2407 18.4429C13.3775 18.3103 13.4862 18.1516 13.5604 17.9762C13.6347 17.8007 13.6729 17.6122 13.6729 17.4217C13.6729 17.2312 13.6347 17.0426 13.5604 16.8672C13.4862 16.6918 13.3775 16.533 13.2407 16.4004C13.104 16.2678 12.942 16.164 12.7644 16.0951C12.5867 16.0263 12.3971 15.9938 12.2067 15.9997C11.8371 16.011 11.4864 16.1658 11.229 16.4312C10.9716 16.6967 10.8276 17.0519 10.8276 17.4217C10.8276 17.7914 10.9716 18.1467 11.229 18.4121C11.4864 18.6776 11.8371 18.8324 12.2067 18.8437ZM19.7907 18.8437C19.9811 18.8495 20.1707 18.817 20.3484 18.7482C20.526 18.6794 20.688 18.5756 20.8247 18.4429C20.9615 18.3103 21.0702 18.1516 21.1444 17.9762C21.2187 17.8007 21.2569 17.6122 21.2569 17.4217C21.2569 17.2312 21.2187 17.0426 21.1444 16.8672C21.0702 16.6918 20.9615 16.533 20.8247 16.4004C20.688 16.2678 20.526 16.164 20.3484 16.0951C20.1707 16.0263 19.9811 15.9938 19.7907 15.9997C19.4211 16.011 19.0704 16.1658 18.813 16.4312C18.5556 16.6967 18.4116 17.0519 18.4116 17.4217C18.4116 17.7914 18.5556 18.1467 18.813 18.4121C19.0704 18.6776 19.4211 18.8324 19.7907 18.8437ZM13.2707 20.8197C13.2189 20.742 13.1523 20.6753 13.0747 20.6234C12.9971 20.5715 12.91 20.5354 12.8184 20.5171C12.7269 20.4989 12.6326 20.4988 12.541 20.517C12.4495 20.5352 12.3624 20.5712 12.2847 20.623C12.207 20.6748 12.1404 20.7415 12.0884 20.8191C12.0365 20.8967 12.0004 20.9837 11.9822 21.0753C11.9639 21.1668 11.9638 21.2611 11.982 21.3527C12.0002 21.4443 12.0362 21.5314 12.088 21.609C12.3787 22.0437 12.9187 22.3463 13.528 22.5423C14.168 22.749 14.9947 22.8743 15.9987 22.8743C17.0027 22.8743 17.8294 22.749 18.468 22.5437C19.0787 22.3463 19.6187 22.0437 19.908 21.609C20.0127 21.4522 20.0508 21.2602 20.0139 21.0753C19.977 20.8904 19.8682 20.7277 19.7114 20.623C19.5545 20.5183 19.3625 20.4803 19.1776 20.5171C18.9927 20.554 18.83 20.6628 18.7254 20.8197C18.6987 20.8597 18.528 21.0303 18.032 21.189C17.5654 21.3397 16.892 21.4517 15.9987 21.4517C15.1054 21.4517 14.432 21.3397 13.964 21.189C13.4707 21.029 13.2974 20.8597 13.2707 20.8197Z" fill="#68A4A9"/>
</svg>
