<svg width="32" height="32" viewBox="0 0 32 32" fill="none" xmlns="http://www.w3.org/2000/svg">
<path fill-rule="evenodd" clip-rule="evenodd" d="M6.66536 1.33301C3.71984 1.33301 1.33203 3.72082 1.33203 6.66634V25.333C1.33203 28.2785 3.71984 30.6663 6.66536 30.6663H25.332C28.2775 30.6663 30.6654 28.2785 30.6654 25.333V6.66634C30.6654 3.72082 28.2775 1.33301 25.332 1.33301H6.66536ZM6.21964 5.99967C5.98583 6.0867 5.78855 6.25979 5.6734 6.49074C5.50422 6.83007 5.54151 7.23593 5.76971 7.53875L13.2553 17.4725L5.3674 25.9311C5.34672 25.9534 5.32726 25.9762 5.30898 25.9997H8.03819L14.4775 19.0943L19.4286 25.6647C19.5447 25.8187 19.701 25.9338 19.8771 25.9997H25.7735C26.0066 25.9125 26.2034 25.7397 26.3182 25.5091C26.4874 25.1698 26.4502 24.7639 26.2219 24.4611L18.7363 14.5274L26.6884 5.99967H23.9538L17.514 12.9054L12.563 6.33511C12.4466 6.18068 12.2897 6.06542 12.113 5.99967H6.21964ZM20.7259 24.063L8.57403 7.93693H11.2657L23.4176 24.063H20.7259Z" fill="#68A4A9"/>
</svg>
