<svg width="125" height="68" viewBox="0 0 125 68" fill="none" xmlns="http://www.w3.org/2000/svg"><g clip-path="url(#a)"><path d="M46.648 53.14V39.372h4.13l.193 2.974c.349-1.028.863-1.827 1.542-2.396.698-.569 1.579-.853 2.644-.853.349 0 .642.027.881.082.257.055.459.129.606.221l-.468 3.855a3.3 3.3 0 0 0-.634-.143 4.5 4.5 0 0 0-.634-.028c-.55 0-1.065.12-1.542.358-.477.239-.863.597-1.156 1.074-.276.459-.413 1.047-.413 1.763v6.939h-4.681Zm18.39.276c-1.524 0-2.846-.285-3.966-.854-1.101-.569-1.955-1.386-2.56-2.451-.607-1.065-.91-2.35-.91-3.855 0-1.505.303-2.79.91-3.855.605-1.065 1.45-1.882 2.532-2.451 1.101-.569 2.359-.854 3.772-.854 1.45 0 2.68.285 3.69.854 1.028.55 1.808 1.321 2.34 2.313.533.972.799 2.092.799 3.359 0 .33-.009.661-.027.991-.019.33-.046.606-.083.826H60.632v-2.506h8.84l-2.23.854c0-1.102-.202-1.946-.606-2.534-.385-.587-.991-.881-1.817-.881-.588 0-1.093.138-1.515.413-.404.276-.716.707-.936 1.295-.202.587-.303 1.34-.303 2.258 0 .899.12 1.633.358 2.202.239.55.579.954 1.02 1.211.44.239.972.358 1.596.358.698 0 1.248-.138 1.652-.413.422-.275.734-.66.936-1.156l3.745 1.239c-.257.79-.707 1.46-1.349 2.01-.624.533-1.377.937-2.258 1.212-.863.276-1.772.413-2.726.413Zm13.934 0c-1.138 0-2.139-.275-3.002-.826-.844-.569-1.505-1.386-1.982-2.451-.459-1.064-.688-2.34-.688-3.827 0-1.542.238-2.845.716-3.91.495-1.064 1.174-1.881 2.037-2.45.881-.569 1.891-.854 3.029-.854 1.248 0 2.249.386 3.001 1.157.771.752 1.267 1.716 1.487 2.891l-.44.578V33.534h4.681v19.606h-4.186l-.303-4.682.551.413c-.11.918-.395 1.716-.854 2.396-.44.679-1.01 1.211-1.707 1.597-.68.367-1.46.55-2.341.55Zm1.624-3.442c.533 0 .983-.138 1.35-.413.385-.294.679-.725.881-1.294.202-.569.303-1.267.303-2.093 0-.771-.101-1.423-.303-1.955-.184-.55-.468-.963-.853-1.239-.367-.294-.817-.44-1.35-.44-.807 0-1.45.303-1.927.909-.459.587-.688 1.523-.688 2.808 0 1.285.229 2.23.688 2.836.459.587 1.092.881 1.9.881Zm12.913-15.199c-.954 0-1.652-.174-2.093-.523-.422-.367-.633-.936-.633-1.707 0-.789.211-1.358.633-1.707.441-.367 1.139-.55 2.093-.55.937 0 1.625.183 2.065.55.441.349.661.918.661 1.707 0 .771-.22 1.34-.661 1.707-.44.349-1.128.523-2.065.523Zm2.34 1.597v13.768h-4.681V36.372h4.681Zm18.489-.744h-9.39v3.855h7.49v3.662h-7.49v6.994h-4.736V34.966H114V35.628Z" fill="url(#b)"/><path d="M118.746 37.775c-.955 0-1.652-.174-2.093-.523-.422-.367-.633-.936-.633-1.707 0-.789.211-1.358.633-1.707.441-.367 1.138-.55 2.093-.55.936 0 1.624.183 2.065.55.44.349.661.918.661 1.707 0 .771-.221 1.34-.661 1.707-.441.349-1.129.523-2.065.523Zm2.34 1.597v13.768h-4.681V39.372h4.681Z" fill="#37B7C3"/><path d="M14.989.459V52.003L0 66.991V15.448L14.989.459Z" fill="#37B7C3"/><path d="M29.979 30.439v14.987H0L14.987 30.439h14.992Z" fill="url(#c)"/><path d="M44.964 15.449V30.436L29.977 45.424V.457l14.987 14.992Z" fill="url(#d)"/><path d="M29.979.457v14.992H0L14.987.457h14.992Z" fill="url(#e)"/><path d="M0 18.737v-3.289h14.989L0 18.737Z" fill="url(#f)"/><path d="M0 48.712v-3.289h14.989L0 48.712Z" fill="url(#g)"/><path d="M29.976.454H14.989l-1.036 1.036h14.993L43.933 16.483v14.981l1.03-1.03V15.447L29.976.454ZM14.989 30.434V16.483h-1.036v14.987h14.993v-1.036H14.989Zm-1.036 16.023v6.579l1.036-1.036v-5.543h-1.036Z" fill="#fff"/></g><defs><linearGradient id="b" x1="55.903" y1="42.573" x2="121.155" y2="42.573" gradientUnits="userSpaceOnUse"><stop stop-color="#37B7C3"/><stop offset="1" stop-color="#fff"/></linearGradient><linearGradient id="c" x1="30.153" y1="37.932" x2=".099" y2="37.932" gradientUnits="userSpaceOnUse"><stop stop-color="#1A4E6F"/><stop offset=".3" stop-color="#088395"/></linearGradient><linearGradient id="d" x1="37.47" y1=".719" x2="37.47" y2="68.633" gradientUnits="userSpaceOnUse"><stop stop-color="#088395"/><stop offset="1" stop-color="#1A4E6F"/></linearGradient><linearGradient id="e" x1=".0002" y1="7.953" x2="29.979" y2="7.953" gradientUnits="userSpaceOnUse"><stop offset=".7" stop-color="#37B7C3"/><stop offset="1" stop-color="#071952"/></linearGradient><linearGradient id="f" x1="7.494" y1="15.44" x2="7.494" y2="18.716" gradientUnits="userSpaceOnUse"><stop stop-color="#1F1E21"/><stop offset="1" stop-color="#1F1E21" stop-opacity="0"/></linearGradient><linearGradient id="g" x1="7.494" y1="45.567" x2="7.494" y2="48.844" gradientUnits="userSpaceOnUse"><stop stop-color="#1F1E21"/><stop offset="1" stop-color="#1F1E21" stop-opacity="0"/></linearGradient><clipPath id="a"><rect width="124.68" height="67.45" fill="#fff"/></clipPath></defs></svg>
