<svg xmlns="http://www.w3.org/2000/svg" style="display:none">
  <symbol id="icon-telegram" viewBox="0 0 32 32">
    <path d="M16 .32a15.68 15.68 0 1 0 0 31.36A15.68 15.68 0 0 0 16 .32zm4.986 23.76-.004.02-4.256-3.308-2.732 2.52a.24.24 0 0 1-.193.031l.524-4.686.016.013.011-.092s7.66-6.974 7.972-7.271c.316-.296.212-.362.212-.362.018-.361-.595 0-.595 0L9.998 18.037l-4.227-1.44s-.649-.232-.708-.744c-.064-.508.793-.784.793-.784L22.597 8.393s1.381-.615 1.381.404l-2.992 15.283z" fill="#68A4A9"/>
  </symbol>
  <symbol id="icon-reddit" viewBox="0 0 32 32">
    <path fill-rule="evenodd" clip-rule="evenodd" d="M6.665 1.333A5.333 5.333 0 0 0 1.332 6.666v18.667a5.333 5.333 0 0 0 5.333 5.333H25.332a5.333 5.333 0 0 0 5.333-5.333V6.666a5.333 5.333 0 0 0-5.333-5.333H6.665zm13.84 7.653-2.98-.663-.692 4.147c2.067.127 3.956.72 5.42 1.647a3.2 3.2 0 0 1 4.63 2.882 3.19 3.19 0 0 1-1.028 2.35c.02.167.029.336.029.507 0 1.882-1.144 3.5-2.816 4.614-1.676 1.118-3.95 1.787-6.428 1.787s-4.752-.669-6.428-1.787C8.571 22.344 7.427 20.727 7.427 18.845c0-.172.009-.341.026-.508a3.2 3.2 0 0 1-1.028-2.35 3.2 3.2 0 0 1 3.2-3.2 3.19 3.19 0 0 1 2.317.984c1.519-.961 3.494-1.564 5.65-1.66l.852-5.115a.48.48 0 0 1 .565-.38l3.818.85a1.6 1.6 0 1 1-.322 1.52zM12.207 18.844a1.414 1.414 0 1 0 0-2.847 1.414 1.414 0 0 0 0 2.847zm7.584 0a1.414 1.414 0 1 0 0-2.847 1.414 1.414 0 0 0 0 2.847zm-6.5 1.976a.48.48 0 0 0-.672.672c.29.435.83.738 1.44.934.64.207 1.467.332 2.47.332s1.83-.125 2.468-.332c.611-.197 1.151-.5 1.44-.934a.48.48 0 0 0-.672-.672c-.267.16-.437.33-.932.49-.534.15-1.207.262-2.104.262s-.909-.112-1.443-.263c-.496-.16-.666-.33-.994-.489z" fill="#68A4A9"/>
  </symbol>
  <symbol id="icon-x" viewBox="0 0 32 32">
    <path fill-rule="evenodd" clip-rule="evenodd" d="M6.665 1.333A5.333 5.333 0 0 0 1.332 6.666v18.667a5.333 5.333 0 0 0 5.333 5.333H25.332a5.333 5.333 0 0 0 5.333-5.333V6.666a5.333 5.333 0 0 0-5.333-5.333H6.665zM6.22 6H12.113l4.95 6.563 7.876-6.563h2.746l-8.952 7.463 7.486 9.934H18.326l-4.971-6.57-7.958 6.57H2.67l9.452-7.87L5.768 6H6.22zm14.506 16.063H18.01L8.574 7.937h2.692l9.46 14.126z" fill="#68A4A9"/>
  </symbol>
  <symbol id="icon-discord" viewBox="0 0 32 32">
    <path fill-rule="evenodd" clip-rule="evenodd" d="M12 4.667c-2.435 0-4.276.41-6.294 1.401a.533.533 0 0 0-.213.257C4.108 8.634 1.332 15.062 1.332 22.667a.533.533 0 0 0 .152.464c1.27 1.308 2.423 2.27 3.66 2.95 1.244.683 2.54 1.063 4.073 1.247a.533.533 0 0 0 .49-.262l.68-1.136c-.99-.347-2.003-.807-2.627-1.431a1.067 1.067 0 0 1 1.508-1.51c.34.34 1.139.727 2.267 1.088.932.244 2.555.549 4.36.549s3.428-.305 4.36-.549c1.128-.361 1.927-.749 2.267-1.088a1.067 1.067 0 0 1 1.508 1.51c-.623.624-1.637 1.084-2.628 1.431l.681 1.136a.533.533 0 0 0 .49.262c1.533-.184 2.83-.564 4.073-1.247 1.238-.68 2.39-1.642 3.66-2.95a.533.533 0 0 0 .152-.464c0-7.605-2.71-14.033-4.094-16.342a.533.533 0 0 0-.213-.257C22.277 5.077 20.436 4.667 18 4.667a.533.533 0 0 0-.503.356l-.448 1.344A13.32 13.32 0 0 0 16 6.267c-.997.004-1.982.161-2.93.466l-.449-1.344A.533.533 0 0 0 12 4.667zm1.332 12.333a2 2 0 1 1-4 0 2 2 0 0 1 4 0zm7.333 0a2 2 0 1 1-4 0 2 2 0 0 1 4 0z" fill="#68A4A9"/>
  </symbol>
</svg>
